<svg id="Layer_1" data-name="Layer 1" xmlns="http://www.w3.org/2000/svg" viewBox="0 0 1367.13 768"><defs><style>.cls-1{fill:#1a1a2e;}</style></defs><polyline class="cls-1" points="254.61 768 1366.13 768 1366.13 220"/><path class="cls-1" d="M247.73,768h0Z" transform="translate(0.13)"/><path class="cls-1" d="M254,768c-42.34-76.36-87.84-88.41-107.1-93.78a69.73,69.73,0,0,1-31.32-18.4L77,616.24a69.73,69.73,0,0,0-7.45-6.6L-.13,556.34,0,552.58V0H1127l6.1,9c42.33,76.36,78.49,97.08,97.75,102.45a69.78,69.78,0,0,1,31.32,18.4l38.58,39.58a69.82,69.82,0,0,0,7.45,6.61l58.8,53" transform="translate(0.13)"/></svg>